<svg width="155" height="124" viewBox="0 0 155 124" fill="none" xmlns="http://www.w3.org/2000/svg">
<g clip-path="url(#clip0_110_14)">
<mask id="mask0_110_14" style="mask-type:luminance" maskUnits="userSpaceOnUse" x="0" y="0" width="155" height="124">
<path d="M154.995 0H0.00476074V124H154.995V0Z" fill="white"/>
</mask>
<g mask="url(#mask0_110_14)">
<path d="M115.569 45.1403C116.121 44.6216 116.395 43.9514 116.395 43.1228C116.395 42.2942 116.118 41.6172 115.569 41.0884C115.017 40.5596 114.306 40.2969 113.432 40.2969H109.345C109.24 40.2969 109.189 40.3474 109.189 40.4518V45.7601C109.189 45.8645 109.24 45.915 109.345 45.915H113.432C114.306 45.915 115.017 45.6557 115.569 45.1403ZM136.775 57.899C136.775 58.0035 136.738 58.091 136.667 58.1618C136.592 58.2359 136.504 58.2695 136.403 58.2695H132.752C132.647 58.2695 132.559 58.2325 132.488 58.1618C132.414 58.091 132.38 58.0001 132.38 57.899V36.9152C132.38 36.8108 132.417 36.7232 132.488 36.6525C132.559 36.5817 132.651 36.5447 132.752 36.5447H136.403C136.508 36.5447 136.596 36.5817 136.667 36.6525C136.738 36.7266 136.775 36.8142 136.775 36.9152V57.899ZM120.954 58.0237C120.954 58.1887 120.839 58.2729 120.612 58.2729H116.775C116.565 58.2729 116.419 58.1786 116.338 57.9933L112.437 49.3944C112.396 49.3135 112.332 49.2697 112.25 49.2697H109.348C109.243 49.2697 109.192 49.3203 109.192 49.4247V57.899C109.192 58.0035 109.155 58.091 109.084 58.1618C109.009 58.2359 108.921 58.2695 108.82 58.2695H105.169C105.064 58.2695 104.976 58.2325 104.905 58.1618C104.831 58.091 104.797 58.0001 104.797 57.899V36.9152C104.797 36.8108 104.834 36.7232 104.905 36.6525C104.976 36.5817 105.068 36.5447 105.169 36.5447H114.096C115.427 36.5447 116.599 36.8142 117.608 37.3531C118.617 37.892 119.396 38.6566 119.948 39.6502C120.5 40.6438 120.774 41.7923 120.774 43.0958C120.774 44.5037 120.422 45.7096 119.714 46.7133C119.006 47.717 118.018 48.4277 116.748 48.8386C116.643 48.879 116.612 48.9531 116.653 49.0575L120.896 57.8418C120.937 57.926 120.957 57.9866 120.957 58.027M93.733 76.4275C93.733 76.8316 93.6144 77.1516 93.3842 77.3807C93.1505 77.6131 92.8322 77.7276 92.4258 77.7276H78.6698C78.2635 77.7276 77.9417 77.6131 77.7115 77.3807C77.4778 77.1516 77.3626 76.8316 77.3626 76.4275V54.4365C77.3626 54.1469 77.217 54.002 76.9292 54.002H63.3493C63.0581 54.002 62.9125 54.1469 62.9125 54.4365V76.4275C62.9125 76.8316 62.7939 77.1516 62.5636 77.3807C62.33 77.6131 62.0116 77.7276 61.6053 77.7276H47.8493C47.4429 77.7276 47.1246 77.6131 46.8909 77.3807C46.6573 77.1516 46.5421 76.8316 46.5421 76.4275V18.4103C46.5421 18.0062 46.6573 17.6896 46.8909 17.4572C47.1212 17.2281 47.4429 17.1102 47.8493 17.1102H61.6053C62.0116 17.1102 62.33 17.2281 62.5636 17.4572C62.7939 17.6896 62.9125 18.0062 62.9125 18.4103V39.6232C62.9125 39.9129 63.0581 40.0577 63.3493 40.0577H76.9292C77.217 40.0577 77.3626 39.9129 77.3626 39.6232V18.4103C77.3626 18.0062 77.4778 17.6896 77.7115 17.4572C77.9417 17.2281 78.2635 17.1102 78.6698 17.1102H92.4258C92.8322 17.1102 93.1505 17.2281 93.3842 17.4572C93.6144 17.6896 93.733 18.0062 93.733 18.4103V76.4241V76.4275ZM35.3836 57.9024C35.3836 58.0068 35.3464 58.0944 35.2752 58.1651C35.2007 58.2392 35.1127 58.2729 35.0111 58.2729H20.5914C20.4864 58.2729 20.3984 58.2359 20.3272 58.1651C20.2527 58.0944 20.2189 58.0035 20.2189 57.9024V36.9186C20.2189 36.8142 20.2561 36.7266 20.3272 36.6558C20.3984 36.5851 20.4898 36.5481 20.5914 36.5481H35.0111C35.1161 36.5481 35.2041 36.5851 35.2752 36.6558C35.3464 36.7299 35.3836 36.8175 35.3836 36.9186V39.9297C35.3836 40.0341 35.3464 40.1217 35.2752 40.1924C35.2041 40.2632 35.1127 40.3002 35.0111 40.3002H24.7737C24.6687 40.3002 24.6179 40.3508 24.6179 40.4552V45.2649C24.6179 45.3694 24.6687 45.4199 24.7737 45.4199H31.4824C31.5873 45.4199 31.6754 45.4569 31.7465 45.5277C31.8176 45.6018 31.8549 45.6893 31.8549 45.7904V48.8016C31.8549 48.906 31.8176 48.9935 31.7465 49.0643C31.672 49.1384 31.584 49.1721 31.4824 49.1721H24.7737C24.6687 49.1721 24.6179 49.2226 24.6179 49.327V54.3557C24.6179 54.4601 24.6687 54.5106 24.7737 54.5106H35.0111C35.1161 54.5106 35.2041 54.5477 35.2752 54.6184C35.3464 54.6925 35.3836 54.7801 35.3836 54.8811V57.8923V57.9024ZM155.005 40.2666C153.901 27.4641 153.173 14.6077 152.137 1.80516C145.066 2.08472 137.998 1.65022 130.944 1.11805C123.256 1.08773 115.556 1.39761 107.868 1.44476C97.9526 1.31677 88.0911 -0.242702 78.1652 0.0402257C70.2205 0.225476 62.4587 0.737442 54.558 0.892378C48.7433 1.35719 42.9558 0.96311 37.192 0.966479C35.2414 1.10457 33.2806 0.511773 31.3638 0.966479C27.4829 0.275999 23.094 0.670078 19.1521 0.528614C12.7618 0.437672 6.38164 0.0570666 0.00486755 0.114326C0.763443 15.6013 1.21385 31.1286 3.80113 46.4303C3.66229 48.4412 2.81227 50.4688 2.89694 52.5807C3.18479 56.4103 2.731 60.2265 2.86646 64.0729C2.30091 72.7157 3.21865 81.2709 4.34636 89.8497C27.7911 90.9174 51.2256 93.2886 74.7279 92.4769C100.692 91.7898 126.623 89.3984 152.59 91.6416C153.644 74.5446 154.175 57.3736 154.995 40.2564" fill="#472C56"/>
<path d="M147.782 118.089C148.151 118.089 148.459 118.18 148.706 118.365C148.95 118.55 149.116 118.806 149.201 119.14C149.238 119.261 149.265 119.436 149.285 119.665C149.285 119.712 149.262 119.733 149.218 119.733H146.4C146.346 119.733 146.325 119.709 146.346 119.665C146.363 119.416 146.4 119.214 146.458 119.059C146.549 118.756 146.708 118.52 146.935 118.348C147.162 118.176 147.446 118.092 147.788 118.092M150.87 119.557C150.64 117.661 149.61 116.711 147.788 116.711C147.067 116.711 146.447 116.896 145.936 117.27C145.421 117.644 145.072 118.153 144.89 118.796C144.778 119.126 144.724 119.561 144.724 120.093C144.724 120.975 144.829 121.666 145.042 122.164C145.272 122.744 145.641 123.195 146.146 123.518C146.651 123.842 147.264 124 147.985 124C148.567 124 149.099 123.889 149.573 123.67C150.051 123.448 150.433 123.134 150.718 122.73C150.772 122.646 150.758 122.575 150.677 122.508L149.817 121.804C149.79 121.777 149.756 121.764 149.719 121.764C149.665 121.764 149.617 121.79 149.58 121.848C149.211 122.363 148.71 122.622 148.08 122.622C147.22 122.612 146.678 122.275 146.454 121.615C146.4 121.504 146.356 121.299 146.329 120.996C146.329 120.948 146.353 120.928 146.4 120.928H150.745C150.857 120.928 150.911 120.874 150.911 120.763L150.924 120.335C150.924 120.049 150.907 119.793 150.87 119.561M143.108 116.745C142.414 116.745 141.872 117.045 141.483 117.644C141.466 117.671 141.449 117.685 141.435 117.678C141.422 117.675 141.415 117.654 141.415 117.617V116.998C141.415 116.95 141.398 116.913 141.368 116.88C141.334 116.846 141.297 116.832 141.249 116.832H139.972C139.925 116.832 139.888 116.849 139.854 116.88C139.82 116.913 139.806 116.95 139.806 116.998V123.724C139.806 123.771 139.823 123.808 139.854 123.842C139.888 123.875 139.925 123.889 139.972 123.889H141.249C141.297 123.889 141.334 123.872 141.368 123.842C141.402 123.808 141.415 123.771 141.415 123.724V119.817C141.415 119.413 141.544 119.082 141.805 118.83C142.065 118.577 142.387 118.442 142.776 118.422C142.841 118.412 142.932 118.409 143.054 118.409C143.24 118.409 143.4 118.432 143.538 118.476C143.66 118.523 143.725 118.49 143.731 118.378L143.968 117.136C143.985 117.035 143.958 116.964 143.884 116.93C143.66 116.812 143.403 116.752 143.105 116.752M136.481 117.001V121.198C136.481 121.629 136.356 121.976 136.105 122.232C135.854 122.491 135.523 122.619 135.106 122.619C134.689 122.619 134.381 122.491 134.154 122.232C133.928 121.976 133.816 121.629 133.816 121.198V117.001C133.816 116.954 133.799 116.917 133.768 116.883C133.734 116.849 133.697 116.836 133.65 116.836H132.373C132.326 116.836 132.288 116.853 132.255 116.883C132.221 116.917 132.207 116.954 132.207 117.001V121.656C132.207 122.4 132.444 122.976 132.922 123.384C133.399 123.788 133.988 123.99 134.693 123.99C135.451 123.99 136.02 123.747 136.4 123.259C136.42 123.232 136.437 123.222 136.454 123.232C136.474 123.242 136.481 123.259 136.481 123.286V123.727C136.481 123.774 136.498 123.811 136.528 123.845C136.562 123.879 136.599 123.892 136.647 123.892H137.91C137.957 123.892 137.995 123.875 138.029 123.845C138.062 123.811 138.076 123.774 138.076 123.727V117.001C138.076 116.954 138.059 116.917 138.029 116.883C137.995 116.849 137.957 116.836 137.91 116.836H136.647C136.599 116.836 136.562 116.853 136.528 116.883C136.494 116.917 136.481 116.954 136.481 117.001ZM130.859 117.968V117.001C130.859 116.954 130.842 116.917 130.812 116.883C130.778 116.849 130.741 116.836 130.693 116.836H129.278C129.23 116.836 129.207 116.812 129.207 116.768V115.152C129.207 115.105 129.19 115.068 129.159 115.034C129.125 115 129.088 114.987 129.041 114.987H127.832C127.784 114.987 127.747 115.004 127.713 115.034C127.679 115.068 127.666 115.105 127.666 115.152V116.768C127.666 116.816 127.642 116.836 127.598 116.836H126.806C126.758 116.836 126.721 116.853 126.687 116.883C126.653 116.917 126.64 116.954 126.64 117.001V117.968C126.64 118.015 126.657 118.052 126.687 118.085C126.718 118.119 126.758 118.133 126.806 118.133H127.598C127.646 118.133 127.666 118.156 127.666 118.2V122.134C127.676 122.824 127.859 123.293 128.221 123.542C128.584 123.791 129.129 123.916 129.86 123.916L130.582 123.902C130.693 123.885 130.748 123.825 130.748 123.724V122.69C130.748 122.643 130.731 122.606 130.7 122.572C130.67 122.538 130.629 122.525 130.582 122.525H130.165C129.833 122.525 129.589 122.447 129.437 122.289C129.285 122.134 129.207 121.878 129.207 121.528V118.2C129.207 118.153 129.23 118.133 129.278 118.133H130.693C130.741 118.133 130.778 118.116 130.812 118.085C130.846 118.055 130.859 118.015 130.859 117.968ZM122.681 124.003C123.402 124.003 124.032 123.832 124.571 123.485C125.109 123.141 125.465 122.673 125.641 122.083C125.658 122.019 125.681 121.912 125.708 121.767C125.719 121.713 125.708 121.669 125.675 121.636C125.641 121.602 125.604 121.582 125.556 121.575L124.306 121.383C124.205 121.366 124.141 121.41 124.113 121.521C124.113 121.538 124.11 121.555 124.1 121.561C124.1 121.588 124.097 121.612 124.086 121.629C124.012 121.932 123.849 122.174 123.595 122.353C123.341 122.531 123.037 122.622 122.684 122.622C122.332 122.622 122.024 122.528 121.78 122.339C121.536 122.151 121.374 121.895 121.279 121.572C121.194 121.258 121.154 120.851 121.154 120.342C121.154 119.834 121.201 119.409 121.292 119.113C121.377 118.8 121.54 118.554 121.787 118.375C122.031 118.197 122.332 118.106 122.681 118.106C123.03 118.106 123.321 118.19 123.568 118.355C123.815 118.52 123.985 118.732 124.069 118.991C124.086 119.045 124.107 119.113 124.124 119.183C124.134 119.21 124.137 119.247 124.137 119.295C124.164 119.386 124.222 119.433 124.303 119.433H124.33L125.58 119.254C125.681 119.237 125.732 119.18 125.732 119.089V119.062C125.715 118.914 125.681 118.769 125.634 118.621C125.458 118.079 125.102 117.627 124.564 117.267C124.029 116.907 123.399 116.728 122.674 116.728C121.949 116.728 121.343 116.907 120.822 117.26C120.297 117.614 119.941 118.096 119.745 118.702C119.596 119.126 119.521 119.669 119.521 120.332C119.521 120.996 119.596 121.575 119.745 121.989C119.948 122.606 120.31 123.097 120.829 123.461C121.347 123.825 121.963 124.007 122.674 124.007M116.399 117.004V121.201C116.399 121.632 116.274 121.979 116.023 122.235C115.773 122.494 115.441 122.622 115.024 122.622C114.608 122.622 114.299 122.494 114.072 122.235C113.846 121.979 113.734 121.632 113.734 121.201V117.004C113.734 116.957 113.717 116.92 113.686 116.886C113.653 116.853 113.615 116.839 113.568 116.839H112.291C112.244 116.839 112.207 116.856 112.173 116.886C112.139 116.92 112.125 116.957 112.125 117.004V121.659C112.125 122.403 112.362 122.979 112.84 123.387C113.317 123.791 113.907 123.993 114.611 123.993C115.37 123.993 115.938 123.751 116.318 123.262C116.335 123.235 116.355 123.225 116.372 123.235C116.389 123.246 116.399 123.262 116.399 123.289V123.731C116.399 123.778 116.416 123.815 116.446 123.848C116.48 123.882 116.518 123.896 116.565 123.896H117.828C117.876 123.896 117.913 123.879 117.947 123.848C117.98 123.815 117.994 123.778 117.994 123.731V117.004C117.994 116.957 117.977 116.92 117.947 116.886C117.913 116.853 117.876 116.839 117.828 116.839H116.565C116.518 116.839 116.48 116.856 116.446 116.886C116.413 116.92 116.399 116.957 116.399 117.004ZM110.29 116.755C109.596 116.755 109.054 117.055 108.664 117.654C108.647 117.681 108.63 117.695 108.617 117.688C108.603 117.685 108.597 117.664 108.597 117.627V117.008C108.597 116.96 108.58 116.923 108.549 116.89C108.515 116.856 108.478 116.843 108.431 116.843H107.154C107.106 116.843 107.069 116.859 107.035 116.89C107.001 116.923 106.988 116.96 106.988 117.008V123.734C106.988 123.781 107.005 123.818 107.035 123.852C107.069 123.885 107.106 123.899 107.154 123.899H108.431C108.478 123.899 108.515 123.882 108.549 123.852C108.583 123.818 108.597 123.781 108.597 123.734V119.827C108.597 119.423 108.725 119.093 108.986 118.84C109.243 118.587 109.568 118.453 109.958 118.432C110.022 118.422 110.114 118.419 110.236 118.419C110.422 118.419 110.584 118.442 110.723 118.486C110.842 118.533 110.91 118.5 110.916 118.389L111.153 117.146C111.17 117.045 111.143 116.974 111.069 116.94C110.845 116.822 110.588 116.762 110.29 116.762M105.555 117.978V117.011C105.555 116.964 105.539 116.927 105.508 116.893C105.474 116.859 105.437 116.846 105.39 116.846H103.974C103.927 116.846 103.906 116.822 103.906 116.779V115.162C103.906 115.115 103.889 115.078 103.859 115.044C103.825 115.01 103.788 114.997 103.74 114.997H102.531C102.484 114.997 102.447 115.014 102.413 115.044C102.379 115.078 102.365 115.115 102.365 115.162V116.779C102.365 116.826 102.342 116.846 102.294 116.846H101.502C101.454 116.846 101.417 116.863 101.383 116.893C101.349 116.927 101.336 116.964 101.336 117.011V117.978C101.336 118.025 101.353 118.062 101.383 118.096C101.417 118.129 101.454 118.143 101.502 118.143H102.294C102.342 118.143 102.365 118.166 102.365 118.21V122.144C102.376 122.835 102.558 123.303 102.921 123.552C103.283 123.801 103.828 123.926 104.56 123.926L105.281 123.912C105.393 123.896 105.447 123.835 105.447 123.734V122.7C105.447 122.653 105.43 122.616 105.4 122.582C105.366 122.548 105.329 122.535 105.281 122.535H104.865C104.533 122.535 104.289 122.457 104.136 122.299C103.984 122.144 103.906 121.888 103.906 121.538V118.21C103.906 118.163 103.93 118.143 103.974 118.143H105.39C105.437 118.143 105.474 118.126 105.508 118.096C105.542 118.062 105.555 118.025 105.555 117.978ZM97.6006 123.987C98.4607 123.987 99.1516 123.801 99.6697 123.427C100.188 123.054 100.449 122.542 100.449 121.888C100.449 121.457 100.333 121.103 100.103 120.831C99.8729 120.558 99.5884 120.346 99.2566 120.194C98.9247 120.042 98.5115 119.894 98.0205 119.746L97.7157 119.662C97.2077 119.524 96.842 119.399 96.6252 119.281C96.4085 119.167 96.3001 118.998 96.3001 118.776C96.3001 118.537 96.4119 118.352 96.6422 118.217C96.8691 118.082 97.1637 118.018 97.5227 118.018C97.929 118.018 98.2508 118.099 98.4878 118.261C98.7249 118.422 98.8434 118.621 98.8434 118.86C98.8434 118.907 98.8603 118.944 98.8908 118.978C98.9247 119.012 98.9619 119.025 99.0093 119.025H100.188C100.235 119.025 100.273 119.008 100.306 118.978C100.34 118.944 100.354 118.907 100.354 118.86C100.354 118.456 100.239 118.096 100.008 117.776C99.7781 117.459 99.4496 117.21 99.0229 117.031C98.5962 116.853 98.1018 116.762 97.5362 116.762C96.7031 116.762 96.0326 116.954 95.5212 117.334C95.0133 117.715 94.7593 118.23 94.7593 118.874C94.7593 119.298 94.871 119.645 95.0912 119.918C95.3147 120.191 95.5856 120.403 95.9107 120.561C96.2358 120.719 96.632 120.864 97.1061 121.002L97.6344 121.167C98.0611 121.289 98.3693 121.4 98.5589 121.504C98.7486 121.609 98.8434 121.77 98.8434 121.979C98.8434 122.208 98.7283 122.4 98.498 122.552C98.2677 122.703 97.9663 122.781 97.5938 122.781C97.2043 122.781 96.8826 122.697 96.6286 122.525C96.3746 122.353 96.246 122.154 96.246 121.925V121.898C96.246 121.851 96.229 121.814 96.1985 121.78C96.1647 121.747 96.1274 121.733 96.08 121.733H94.8575C94.8101 121.733 94.7728 121.75 94.739 121.78C94.7051 121.814 94.6916 121.851 94.6916 121.898V122.023C94.6916 122.39 94.8135 122.727 95.0539 123.023C95.2944 123.323 95.633 123.559 96.0732 123.727C96.5135 123.899 97.0248 123.983 97.6073 123.983M90.0961 122.74C89.7541 122.74 89.473 122.659 89.2562 122.498C89.0395 122.336 88.9311 122.107 88.9311 121.814C88.9311 121.474 89.0734 121.211 89.3544 121.026C89.6355 120.841 90.025 120.75 90.5126 120.75H91.6776C91.725 120.75 91.7453 120.773 91.7453 120.817V121.467C91.7453 121.834 91.5828 122.141 91.261 122.38C90.9359 122.619 90.5499 122.74 90.0961 122.74ZM90.428 116.735C89.622 116.735 88.9548 116.913 88.4232 117.274C87.8915 117.634 87.5867 118.092 87.5156 118.655C87.5054 118.692 87.5156 118.722 87.5494 118.746C87.5833 118.769 87.6206 118.786 87.668 118.793L89.0158 118.958C89.1174 118.978 89.1817 118.931 89.2088 118.82C89.263 118.597 89.4018 118.426 89.6186 118.301C89.8353 118.176 90.1198 118.116 90.472 118.116C90.8987 118.116 91.217 118.213 91.4304 118.412C91.6437 118.611 91.7487 118.887 91.7487 119.247V119.578C91.7487 119.625 91.725 119.645 91.681 119.645H90.1943C89.2766 119.645 88.5688 119.847 88.0642 120.244C87.5596 120.645 87.309 121.204 87.309 121.922C87.309 122.639 87.5325 123.134 87.9829 123.481C88.4333 123.832 89.0023 124.007 89.6965 124.007C90.5566 124.007 91.2136 123.757 91.6674 123.262C91.6843 123.246 91.7047 123.235 91.7216 123.242C91.7385 123.246 91.7487 123.262 91.7487 123.289V123.731C91.7487 123.778 91.7656 123.815 91.7961 123.848C91.83 123.882 91.8672 123.896 91.9146 123.896H93.1913C93.2388 123.896 93.276 123.879 93.3099 123.848C93.3437 123.815 93.3573 123.778 93.3573 123.731V119.076C93.3573 118.624 93.2354 118.224 92.9949 117.867C92.7545 117.513 92.4124 117.233 91.9688 117.031C91.5252 116.829 91.0104 116.728 90.428 116.728M85.8731 116.755C85.1789 116.755 84.637 117.055 84.2476 117.654C84.2307 117.681 84.2137 117.695 84.2002 117.688C84.1866 117.681 84.1799 117.664 84.1799 117.627V117.008C84.1799 116.96 84.1629 116.923 84.1325 116.89C84.0986 116.856 84.0613 116.843 84.0139 116.843H82.7372C82.6898 116.843 82.6526 116.859 82.6187 116.89C82.5848 116.923 82.5713 116.96 82.5713 117.008V123.734C82.5713 123.781 82.5882 123.818 82.6187 123.852C82.6526 123.885 82.6898 123.899 82.7372 123.899H84.0139C84.0613 123.899 84.0986 123.882 84.1325 123.852C84.1663 123.818 84.1799 123.781 84.1799 123.734V119.827C84.1799 119.423 84.3086 119.093 84.5693 118.84C84.8267 118.587 85.1518 118.453 85.5412 118.432C85.6056 118.422 85.697 118.419 85.8189 118.419C86.0052 118.419 86.1644 118.442 86.3032 118.486C86.4217 118.533 86.4895 118.5 86.4962 118.389L86.7333 117.146C86.7502 117.045 86.7231 116.974 86.6486 116.94C86.4251 116.822 86.1677 116.762 85.8697 116.762M81.0372 116.829H79.6623C79.6149 116.829 79.5912 116.806 79.5912 116.762V116.624C79.5912 116.209 79.6691 115.923 79.8214 115.768C79.9738 115.613 80.2482 115.532 80.6478 115.532H81.0101C81.0575 115.532 81.0948 115.516 81.1286 115.485C81.1625 115.452 81.176 115.414 81.176 115.367V114.401C81.176 114.353 81.1591 114.316 81.1286 114.283C81.0948 114.249 81.0575 114.236 81.0101 114.236H80.5258C79.8689 114.226 79.3609 114.29 78.9985 114.428C78.6362 114.566 78.3788 114.798 78.2196 115.125C78.0639 115.452 77.9826 115.913 77.9826 116.513V116.762C77.9826 116.809 77.9589 116.829 77.9115 116.829H77.0513C77.0039 116.829 76.9666 116.846 76.9328 116.876C76.8989 116.91 76.8854 116.947 76.8854 116.994V118.085C76.8854 118.133 76.9023 118.17 76.9328 118.203C76.9666 118.237 77.0039 118.25 77.0513 118.25H77.9115C77.9589 118.25 77.9826 118.274 77.9826 118.318V123.731C77.9826 123.778 77.9995 123.815 78.03 123.848C78.0639 123.882 78.1011 123.896 78.1485 123.896H79.4252C79.4726 123.896 79.5099 123.879 79.5438 123.848C79.5776 123.815 79.5912 123.778 79.5912 123.731V118.318C79.5912 118.271 79.6149 118.25 79.6623 118.25H81.0372C81.0846 118.25 81.1219 118.234 81.1557 118.203C81.1896 118.17 81.2031 118.133 81.2031 118.085V116.994C81.2031 116.947 81.1862 116.91 81.1557 116.876C81.1219 116.843 81.0846 116.829 81.0372 116.829ZM73.1941 116.731C72.4253 116.731 71.853 116.981 71.4737 117.476C71.4636 117.503 71.45 117.513 71.4331 117.503C71.4128 117.493 71.406 117.476 71.406 117.449V117.008C71.406 116.96 71.3891 116.923 71.3586 116.89C71.3247 116.856 71.2875 116.843 71.2401 116.843H69.9634C69.9159 116.843 69.8787 116.859 69.8448 116.89C69.811 116.923 69.7974 116.96 69.7974 117.008V123.734C69.7974 123.781 69.8143 123.818 69.8448 123.852C69.8787 123.885 69.9159 123.899 69.9634 123.899H71.2401C71.2875 123.899 71.3247 123.882 71.3586 123.852C71.3925 123.818 71.406 123.781 71.406 123.734V119.524C71.406 119.099 71.5279 118.759 71.7751 118.503C72.019 118.247 72.3407 118.116 72.7403 118.116C73.1399 118.116 73.4582 118.247 73.6987 118.51C73.9391 118.773 74.061 119.116 74.061 119.537V123.734C74.061 123.781 74.0779 123.818 74.1084 123.852C74.1423 123.885 74.1795 123.899 74.227 123.899H75.5037C75.5511 123.899 75.5883 123.882 75.6222 123.852C75.6561 123.818 75.6696 123.781 75.6696 123.734V119.204C75.6696 118.439 75.4461 117.836 74.9957 117.395C74.5453 116.954 73.9459 116.731 73.1975 116.731M66.4786 123.899H67.7554C67.8028 123.899 67.84 123.882 67.8739 123.852C67.9078 123.818 67.9213 123.781 67.9213 123.734V114.397C67.9213 114.35 67.9044 114.313 67.8739 114.279C67.8434 114.246 67.8028 114.232 67.7554 114.232H66.4786C66.4312 114.232 66.394 114.249 66.3601 114.279C66.3263 114.313 66.3127 114.35 66.3127 114.397V123.734C66.3127 123.781 66.3296 123.818 66.3601 123.852C66.394 123.885 66.4312 123.899 66.4786 123.899ZM57.5789 116.731C56.8102 116.731 56.2379 116.981 55.8586 117.476C55.8484 117.503 55.8349 117.513 55.818 117.503C55.7976 117.493 55.7909 117.476 55.7909 117.449V114.397C55.7909 114.35 55.7739 114.313 55.7435 114.279C55.7096 114.246 55.6723 114.232 55.6249 114.232H54.3482C54.3008 114.232 54.2635 114.249 54.2297 114.279C54.1958 114.313 54.1823 114.35 54.1823 114.397V123.734C54.1823 123.781 54.1992 123.818 54.2297 123.852C54.2635 123.885 54.3008 123.899 54.3482 123.899H55.6249C55.6723 123.899 55.7096 123.882 55.7435 123.852C55.7773 123.818 55.7909 123.781 55.7909 123.734V119.524C55.7909 119.099 55.9128 118.759 56.16 118.503C56.4038 118.247 56.7255 118.116 57.1251 118.116C57.5247 118.116 57.8431 118.247 58.0835 118.51C58.324 118.773 58.4459 119.116 58.4459 119.537V123.734C58.4459 123.781 58.4628 123.818 58.4933 123.852C58.5272 123.885 58.5644 123.899 58.6118 123.899H59.8885C59.9359 123.899 59.9732 123.882 60.007 123.852C60.0409 123.818 60.0545 123.781 60.0545 123.734V119.204C60.0545 118.439 59.831 117.836 59.3806 117.395C58.9301 116.954 58.3307 116.731 57.5823 116.731M49.7663 124.01C50.4876 124.01 51.1175 123.838 51.6559 123.491C52.191 123.148 52.55 122.68 52.7261 122.09C52.743 122.026 52.7667 121.918 52.7972 121.774C52.8074 121.72 52.7972 121.676 52.7633 121.642C52.7295 121.609 52.6922 121.588 52.6448 121.582L51.3952 121.39C51.2936 121.373 51.2292 121.417 51.2022 121.528C51.2022 121.545 51.1988 121.561 51.1886 121.568C51.1886 121.595 51.1852 121.619 51.1751 121.636C51.1006 121.939 50.938 122.181 50.684 122.36C50.43 122.538 50.1253 122.629 49.7731 122.629C49.4209 122.629 49.1127 122.535 48.8689 122.346C48.6284 122.158 48.4625 121.902 48.3677 121.578C48.283 121.265 48.2424 120.857 48.2424 120.349C48.2424 119.84 48.2898 119.416 48.3812 119.119C48.4659 118.806 48.6284 118.56 48.8756 118.382C49.1195 118.203 49.4175 118.112 49.7697 118.112C50.1219 118.112 50.4097 118.197 50.6569 118.362C50.9075 118.527 51.0735 118.739 51.1581 118.998C51.1785 119.052 51.1954 119.119 51.2123 119.19C51.2225 119.217 51.2259 119.254 51.2259 119.301C51.253 119.392 51.3105 119.439 51.3918 119.439H51.4189L52.6685 119.261C52.7701 119.244 52.8209 119.187 52.8209 119.096V119.069C52.8006 118.921 52.7701 118.776 52.7227 118.628C52.5466 118.085 52.191 117.634 51.6526 117.274C51.1141 116.913 50.4876 116.735 49.7629 116.735C49.0382 116.735 48.432 116.913 47.9105 117.267C47.389 117.621 47.03 118.102 46.8336 118.709C46.6846 119.133 46.6101 119.675 46.6101 120.339C46.6101 121.002 46.6846 121.582 46.8336 121.996C47.0368 122.612 47.3991 123.104 47.9173 123.468C48.4354 123.832 49.0517 124.013 49.7629 124.013M45.0286 116.762C44.3343 116.762 43.7925 117.062 43.403 117.661C43.3827 117.688 43.3692 117.701 43.3556 117.695C43.3421 117.691 43.3353 117.671 43.3353 117.634V117.014C43.3353 116.967 43.3184 116.93 43.2879 116.896C43.254 116.863 43.2168 116.849 43.1694 116.849H41.8927C41.8453 116.849 41.808 116.866 41.7741 116.896C41.7403 116.93 41.7267 116.967 41.7267 117.014V123.741C41.7267 123.788 41.7437 123.825 41.7741 123.859C41.808 123.892 41.8453 123.906 41.8927 123.906H43.1694C43.2168 123.906 43.254 123.889 43.2879 123.859C43.3218 123.825 43.3353 123.788 43.3353 123.741V119.834C43.3353 119.429 43.464 119.099 43.7248 118.847C43.9821 118.594 44.3072 118.459 44.6967 118.439C44.761 118.429 44.8525 118.426 44.9744 118.426C45.1606 118.426 45.3198 118.449 45.4587 118.493C45.5772 118.54 45.6449 118.506 45.6517 118.395L45.8887 117.152C45.9057 117.051 45.8786 116.981 45.8041 116.947C45.5806 116.829 45.3232 116.768 45.0252 116.768M36.8468 122.747C36.5048 122.747 36.2237 122.666 36.0069 122.505C35.7902 122.343 35.6818 122.114 35.6818 121.821C35.6818 121.481 35.8241 121.218 36.1051 121.033C36.3862 120.847 36.7723 120.756 37.2633 120.756H38.4283C38.4757 120.756 38.496 120.78 38.496 120.824V121.474C38.496 121.841 38.3335 122.147 38.0117 122.387C37.6866 122.626 37.2972 122.747 36.8468 122.747ZM37.1787 116.742C36.3727 116.742 35.7055 116.92 35.1739 117.28C34.6422 117.641 34.3374 118.099 34.2629 118.661C34.2527 118.698 34.2629 118.729 34.2968 118.752C34.3306 118.776 34.3679 118.793 34.4153 118.8L35.7631 118.965C35.8647 118.985 35.9291 118.938 35.9561 118.826C36.0103 118.604 36.1492 118.432 36.3659 118.308C36.5826 118.183 36.8671 118.123 37.2193 118.123C37.646 118.123 37.9643 118.22 38.1777 118.419C38.391 118.618 38.496 118.894 38.496 119.254V119.584C38.496 119.631 38.4723 119.652 38.4283 119.652H36.9416C36.0239 119.652 35.3161 119.854 34.8115 120.251C34.3069 120.652 34.0529 121.211 34.0529 121.929C34.0529 122.646 34.2764 123.141 34.7268 123.488C35.1739 123.838 35.7462 124.013 36.4404 124.013C37.3006 124.013 37.9576 123.764 38.4114 123.269C38.4283 123.252 38.4486 123.242 38.4655 123.249C38.4825 123.252 38.4926 123.269 38.4926 123.296V123.737C38.4926 123.784 38.5096 123.821 38.54 123.855C38.5705 123.889 38.6112 123.902 38.6586 123.902H39.9353C39.9827 123.902 40.0199 123.885 40.0538 123.855C40.0877 123.821 40.1012 123.784 40.1012 123.737V119.082C40.1012 118.631 39.9793 118.23 39.7389 117.873C39.4984 117.52 39.1564 117.24 38.7128 117.038C38.2691 116.836 37.7544 116.735 37.1719 116.735M29.9248 118.116C30.2939 118.116 30.6021 118.207 30.8493 118.392C31.0931 118.577 31.2591 118.833 31.3437 119.167C31.381 119.288 31.4081 119.463 31.4284 119.692C31.4284 119.739 31.4047 119.759 31.3607 119.759H28.5431C28.4889 119.759 28.4686 119.736 28.4889 119.692C28.5092 119.443 28.5431 119.241 28.6007 119.086C28.6921 118.783 28.8547 118.547 29.0816 118.375C29.3084 118.203 29.5929 118.119 29.9349 118.119M33.0167 119.584C32.7864 117.688 31.7569 116.738 29.9349 116.738C29.2136 116.738 28.5939 116.923 28.0825 117.297C27.5678 117.671 27.219 118.18 27.0327 118.823C26.921 119.153 26.8668 119.588 26.8668 120.12C26.8668 121.002 26.9718 121.693 27.1851 122.191C27.4154 122.771 27.7845 123.222 28.2891 123.545C28.7937 123.869 29.4067 124.027 30.128 124.027C30.7105 124.027 31.2421 123.916 31.7162 123.697C32.1937 123.475 32.5764 123.161 32.8609 122.757C32.9151 122.673 32.9015 122.602 32.8202 122.535L31.9601 121.831C31.933 121.804 31.8991 121.79 31.8619 121.79C31.8077 121.79 31.7603 121.817 31.723 121.875C31.3539 122.39 30.8527 122.649 30.2228 122.649C29.3626 122.639 28.8208 122.302 28.5973 121.642C28.5431 121.531 28.4991 121.326 28.472 121.023C28.472 120.975 28.4957 120.955 28.5397 120.955H32.8846C32.9963 120.955 33.0505 120.901 33.0505 120.79L33.0641 120.362C33.0641 120.076 33.0438 119.82 33.0099 119.588M22.8199 123.993C23.6801 123.993 24.3709 123.808 24.8891 123.434C25.4072 123.06 25.668 122.548 25.668 121.895C25.668 121.464 25.5528 121.11 25.3225 120.837C25.0923 120.564 24.8078 120.352 24.4759 120.201C24.144 120.049 23.7309 119.901 23.2398 119.753L22.9351 119.669C22.4271 119.53 22.0613 119.406 21.8446 119.288C21.6279 119.173 21.5195 119.005 21.5195 118.783C21.5195 118.544 21.6313 118.358 21.8582 118.224C22.085 118.089 22.3797 118.025 22.7386 118.025C23.145 118.025 23.4667 118.106 23.7038 118.267C23.9408 118.429 24.056 118.628 24.056 118.867C24.056 118.914 24.0729 118.951 24.1034 118.985C24.1373 119.018 24.1745 119.032 24.2219 119.032H25.4038C25.4512 119.032 25.4885 119.015 25.5223 118.985C25.5562 118.951 25.5698 118.914 25.5698 118.867C25.5698 118.463 25.4546 118.102 25.2209 117.782C24.9907 117.466 24.6622 117.216 24.2355 117.038C23.8088 116.859 23.3143 116.768 22.7488 116.768C21.9157 116.768 21.2452 116.96 20.7372 117.341C20.2292 117.722 19.9719 118.237 19.9719 118.88C19.9719 119.305 20.0836 119.652 20.3037 119.924C20.5273 120.197 20.7982 120.41 21.1233 120.568C21.4484 120.726 21.8446 120.871 22.3187 121.009L22.847 121.174C23.2737 121.295 23.5819 121.406 23.7715 121.511C23.9612 121.615 24.056 121.777 24.056 121.986C24.056 122.215 23.9408 122.407 23.7072 122.558C23.4769 122.71 23.1755 122.787 22.803 122.787C22.4135 122.787 22.0918 122.703 21.8378 122.531C21.5838 122.36 21.4552 122.161 21.4552 121.932V121.905C21.4552 121.858 21.4382 121.821 21.4077 121.787C21.3739 121.753 21.3366 121.74 21.2892 121.74H20.0667C20.0193 121.74 19.982 121.757 19.9482 121.787C19.9143 121.821 19.9008 121.858 19.9008 121.905V122.03C19.9008 122.397 20.0193 122.734 20.2631 123.03C20.5036 123.33 20.8456 123.565 21.2824 123.734C21.7227 123.906 22.2341 123.99 22.8165 123.99M15.6812 118.119C16.0503 118.119 16.3585 118.21 16.6057 118.395C16.8495 118.581 17.0155 118.837 17.1001 119.17C17.1374 119.291 17.1645 119.466 17.1848 119.695C17.1848 119.743 17.1611 119.763 17.1137 119.763H14.2961C14.2419 119.763 14.2216 119.739 14.2419 119.695C14.2589 119.446 14.2961 119.244 14.3537 119.089C14.4451 118.786 14.6043 118.55 14.8312 118.378C15.0581 118.207 15.3425 118.123 15.6846 118.123M18.7663 119.588C18.536 117.691 17.5065 116.742 15.6846 116.742C14.9632 116.742 14.3435 116.927 13.8322 117.301C13.3174 117.675 12.9686 118.183 12.7823 118.826C12.6706 119.157 12.6164 119.591 12.6164 120.123C12.6164 121.006 12.7214 121.696 12.9347 122.195C13.165 122.774 13.5341 123.225 14.0387 123.549C14.5433 123.872 15.1563 124.03 15.8776 124.03C16.4601 124.03 16.9918 123.919 17.4659 123.7C17.9434 123.478 18.3226 123.165 18.6105 122.761C18.6647 122.676 18.6511 122.606 18.5699 122.538L17.7097 121.834C17.6826 121.807 17.6487 121.794 17.6115 121.794C17.5573 121.794 17.5099 121.821 17.4726 121.878C17.1035 122.393 16.6023 122.653 15.9724 122.653C15.1122 122.643 14.5704 122.306 14.3469 121.646C14.2927 121.534 14.2487 121.329 14.2216 121.026C14.2216 120.979 14.2453 120.959 14.2927 120.959H18.6376C18.7493 120.959 18.8035 120.905 18.8035 120.793L18.8171 120.366C18.8171 120.079 18.7968 119.823 18.7629 119.591M6.18205 115.627H8.26475C8.70838 115.627 9.06735 115.761 9.34166 116.027C9.61596 116.294 9.75142 116.644 9.75142 117.078C9.75142 117.513 9.61596 117.86 9.34166 118.123C9.06735 118.385 8.71177 118.517 8.26475 118.517H6.18205C6.13464 118.517 6.11432 118.493 6.11432 118.449V115.701C6.11432 115.654 6.13803 115.633 6.18205 115.633M9.958 123.919H11.2923C11.3939 123.919 11.4447 123.882 11.4447 123.808C11.4447 123.791 11.4345 123.761 11.4176 123.724L9.46018 119.706C9.45002 119.689 9.45002 119.668 9.46018 119.652C9.47034 119.635 9.48389 119.625 9.50082 119.625C10.0833 119.45 10.5405 119.14 10.869 118.692C11.1975 118.244 11.3634 117.705 11.3634 117.068C11.3634 116.516 11.2415 116.027 11.001 115.596C10.7606 115.169 10.4219 114.835 9.98848 114.603C9.55501 114.367 9.0538 114.249 8.48826 114.249H4.67168C4.62426 114.249 4.58701 114.266 4.55315 114.296C4.51928 114.33 4.50574 114.367 4.50574 114.414V123.751C4.50574 123.798 4.52267 123.835 4.55315 123.869C4.58701 123.902 4.62426 123.916 4.67168 123.916H5.94839C5.9958 123.916 6.03305 123.899 6.06691 123.869C6.10078 123.835 6.11432 123.798 6.11432 123.751V119.83C6.11432 119.783 6.13803 119.763 6.18205 119.763H7.84821C7.88546 119.763 7.91255 119.78 7.93287 119.817L9.76497 123.795C9.80222 123.879 9.86656 123.919 9.958 123.919Z" fill="#84134F"/>
<path d="M151.063 99.429H143.538C143.471 99.429 143.42 99.4492 143.383 99.4863C143.345 99.5233 143.325 99.5772 143.325 99.6412V101.507C143.325 101.575 143.345 101.625 143.383 101.662C143.42 101.699 143.474 101.719 143.538 101.719H145.858C145.906 101.719 145.929 101.743 145.929 101.79V109.119C145.929 109.187 145.95 109.237 145.987 109.274C146.024 109.311 146.078 109.332 146.143 109.332H148.391C148.459 109.332 148.51 109.311 148.547 109.274C148.584 109.237 148.605 109.183 148.605 109.119V101.79C148.605 101.743 148.628 101.719 148.676 101.719H151.067C151.134 101.719 151.185 101.699 151.222 101.662C151.26 101.625 151.28 101.571 151.28 101.507V99.6412C151.28 99.5739 151.26 99.5233 151.222 99.4863C151.185 99.4492 151.131 99.429 151.067 99.429M138.123 109.446C138.892 109.446 139.566 109.325 140.142 109.079C140.721 108.833 141.171 108.483 141.493 108.025C141.815 107.567 141.977 107.024 141.977 106.391C141.977 105.758 141.777 105.185 141.381 104.727C140.985 104.269 140.487 103.953 139.895 103.781C139.302 103.606 138.967 103.505 138.892 103.478C138.344 103.309 137.934 103.168 137.67 103.06C137.405 102.952 137.209 102.838 137.08 102.72C136.952 102.602 136.887 102.457 136.887 102.289C136.887 102.073 136.975 101.901 137.151 101.78C137.328 101.659 137.568 101.595 137.869 101.595C138.306 101.595 138.652 101.709 138.909 101.942C139.166 102.174 139.292 102.43 139.292 102.713V102.726C139.292 102.794 139.312 102.844 139.349 102.881C139.387 102.918 139.441 102.939 139.505 102.939H141.71C141.777 102.939 141.828 102.918 141.865 102.881C141.903 102.844 141.923 102.79 141.923 102.726V102.599C141.923 101.959 141.75 101.386 141.405 100.887C141.059 100.389 140.585 100.002 139.983 99.7288C139.38 99.456 138.709 99.3179 137.971 99.3179C137.233 99.3179 136.637 99.4391 136.071 99.685C135.506 99.9309 135.065 100.281 134.74 100.739C134.419 101.197 134.256 101.723 134.256 102.316C134.256 103.212 134.574 103.895 135.208 104.367C135.844 104.838 136.63 105.216 137.568 105.499L137.981 105.613C138.482 105.765 138.831 105.893 139.021 105.994C139.21 106.098 139.305 106.253 139.305 106.462C139.305 106.64 139.231 106.802 139.078 106.95C138.926 107.095 138.675 107.169 138.323 107.169C137.859 107.169 137.487 107.068 137.206 106.866C136.925 106.664 136.786 106.432 136.786 106.165V106.081C136.786 106.014 136.765 105.963 136.728 105.926C136.691 105.889 136.637 105.869 136.572 105.869H134.368C134.3 105.869 134.249 105.889 134.212 105.926C134.175 105.963 134.154 106.017 134.154 106.081V106.28C134.154 106.913 134.317 107.469 134.645 107.951C134.974 108.432 135.435 108.803 136.034 109.062C136.63 109.321 137.328 109.449 138.123 109.449M128.709 109.449C129.478 109.449 130.155 109.305 130.744 109.012C131.333 108.719 131.787 108.304 132.109 107.765C132.431 107.226 132.593 106.607 132.593 105.899V99.648C132.593 99.5806 132.573 99.5301 132.536 99.493C132.498 99.456 132.444 99.4358 132.38 99.4358H130.131C130.064 99.4358 130.013 99.456 129.975 99.493C129.938 99.5301 129.918 99.584 129.918 99.648V105.899C129.918 106.277 129.806 106.583 129.583 106.819C129.359 107.055 129.068 107.173 128.709 107.173C128.35 107.173 128.042 107.058 127.822 106.826C127.598 106.593 127.486 106.287 127.486 105.899V99.648C127.486 99.5806 127.466 99.5301 127.429 99.493C127.392 99.456 127.337 99.4358 127.273 99.4358H125.024C124.957 99.4358 124.906 99.456 124.869 99.493C124.831 99.5301 124.811 99.584 124.811 99.648V105.899C124.811 106.607 124.974 107.23 125.295 107.765C125.617 108.304 126.074 108.719 126.667 109.012C127.259 109.305 127.94 109.449 128.709 109.449ZM117.855 105.869L118.753 102.7C118.763 102.673 118.776 102.656 118.797 102.656C118.817 102.656 118.831 102.669 118.841 102.7L119.752 105.869C119.772 105.926 119.752 105.953 119.694 105.953H117.916C117.869 105.953 117.848 105.926 117.859 105.869M120.944 109.335H123.375C123.507 109.335 123.575 109.284 123.575 109.18C123.575 109.143 123.572 109.113 123.561 109.096L120.561 99.6042C120.524 99.4897 120.442 99.4358 120.321 99.4358H117.307C117.185 99.4358 117.103 99.493 117.066 99.6042L114.066 109.096C114.018 109.257 114.079 109.335 114.252 109.335H116.683C116.816 109.335 116.897 109.274 116.924 109.15L117.235 108.045C117.252 108.008 117.279 107.988 117.307 107.988H120.321C120.348 107.988 120.371 108.008 120.392 108.045L120.703 109.15C120.73 109.271 120.812 109.335 120.944 109.335ZM109.081 109.449C109.86 109.449 110.544 109.305 111.136 109.018C111.729 108.732 112.19 108.328 112.515 107.809C112.843 107.29 113.006 106.691 113.006 106.014C113.006 105.93 112.935 105.882 112.792 105.872L110.544 105.758C110.476 105.748 110.425 105.758 110.388 105.785C110.351 105.812 110.33 105.856 110.33 105.913C110.33 106.29 110.215 106.593 109.988 106.826C109.761 107.058 109.457 107.173 109.077 107.173C108.698 107.173 108.393 107.058 108.166 106.826C107.94 106.593 107.824 106.29 107.824 105.913V102.871C107.824 102.484 107.94 102.174 108.166 101.945C108.393 101.716 108.698 101.598 109.077 101.598C109.457 101.598 109.761 101.713 109.988 101.945C110.215 102.177 110.33 102.484 110.33 102.871C110.33 102.976 110.388 103.026 110.5 103.026H110.544L112.792 102.885C112.935 102.865 113.006 102.814 113.006 102.73C113.006 102.049 112.843 101.453 112.515 100.941C112.186 100.426 111.729 100.029 111.136 99.7457C110.544 99.4627 109.86 99.3213 109.081 99.3213C108.302 99.3213 107.618 99.4728 107.025 99.7726C106.433 100.076 105.972 100.5 105.647 101.046C105.322 101.591 105.156 102.225 105.156 102.942V105.798C105.156 106.526 105.318 107.162 105.647 107.715C105.975 108.267 106.433 108.692 107.025 108.995C107.618 109.298 108.302 109.446 109.081 109.446M99.5952 107.226C99.2058 107.226 98.8908 107.098 98.6504 106.839C98.4099 106.58 98.288 106.233 98.288 105.798V103.026C98.288 102.592 98.4099 102.245 98.6504 101.986C98.8908 101.726 99.2058 101.598 99.5952 101.598C99.9846 101.598 100.313 101.73 100.554 101.986C100.794 102.245 100.916 102.592 100.916 103.026V105.798C100.916 106.233 100.794 106.58 100.554 106.839C100.313 107.098 99.9914 107.226 99.5952 107.226ZM99.5952 109.503C100.391 109.503 101.092 109.345 101.691 109.028C102.294 108.712 102.762 108.271 103.093 107.698C103.425 107.129 103.591 106.465 103.591 105.711V103.05C103.591 102.316 103.425 101.662 103.093 101.096C102.762 100.53 102.294 100.093 101.691 99.7793C101.089 99.4695 100.391 99.3112 99.5952 99.3112C98.7994 99.3112 98.1119 99.4661 97.5125 99.7793C96.9097 100.089 96.4424 100.53 96.1105 101.096C95.7786 101.662 95.6127 102.312 95.6127 103.05V105.711C95.6127 106.465 95.7786 107.129 96.1105 107.698C96.4424 108.267 96.9097 108.712 97.5125 109.028C98.1153 109.345 98.8095 109.503 99.5952 109.503ZM87.2345 109.335H94.1599C94.2242 109.335 94.2784 109.315 94.3157 109.278C94.3529 109.241 94.3732 109.187 94.3732 109.123V107.27C94.3732 107.203 94.3529 107.152 94.3157 107.115C94.2784 107.078 94.2242 107.058 94.1599 107.058H89.7642C89.7168 107.058 89.6931 107.034 89.6931 106.987V99.6446C89.6931 99.5772 89.6728 99.5267 89.6355 99.4897C89.5983 99.4526 89.5441 99.4324 89.4797 99.4324H87.2311C87.1634 99.4324 87.1126 99.4526 87.0753 99.4897C87.0381 99.5267 87.0177 99.5806 87.0177 99.6446V109.123C87.0177 109.19 87.0347 109.241 87.0753 109.278C87.1126 109.315 87.1668 109.335 87.2311 109.335M81.3284 107.226C80.939 107.226 80.624 107.098 80.3836 106.839C80.1432 106.58 80.0212 106.233 80.0212 105.798V103.026C80.0212 102.592 80.1432 102.245 80.3836 101.986C80.624 101.726 80.939 101.598 81.3284 101.598C81.7179 101.598 82.0464 101.73 82.2868 101.986C82.5273 102.245 82.6492 102.592 82.6492 103.026V105.798C82.6492 106.233 82.5273 106.58 82.2868 106.839C82.0464 107.098 81.7247 107.226 81.3284 107.226ZM81.3284 109.503C82.1243 109.503 82.8253 109.345 83.4247 109.028C84.0275 108.712 84.4948 108.271 84.8267 107.698C85.1586 107.129 85.3245 106.465 85.3245 105.711V103.05C85.3245 102.316 85.1586 101.662 84.8267 101.096C84.4948 100.53 84.0275 100.093 83.4247 99.7793C82.8219 99.4695 82.1243 99.3112 81.3284 99.3112C80.5326 99.3112 79.8451 99.4661 79.2457 99.7793C78.6429 100.089 78.1756 100.53 77.8437 101.096C77.5119 101.662 77.3459 102.312 77.3459 103.05V105.711C77.3459 106.465 77.5119 107.129 77.8437 107.698C78.1756 108.267 78.6429 108.712 79.2457 109.028C79.8485 109.345 80.5428 109.503 81.3284 109.503ZM73.106 99.6446V103.11C73.106 103.158 73.0823 103.181 73.0349 103.181H70.8167C70.7693 103.181 70.7456 103.158 70.7456 103.11V99.6446C70.7456 99.5772 70.7253 99.5267 70.6881 99.4897C70.6508 99.4526 70.5966 99.4324 70.5323 99.4324H68.2836C68.2159 99.4324 68.1651 99.4526 68.1279 99.4897C68.0906 99.5267 68.0703 99.5806 68.0703 99.6446V109.123C68.0703 109.19 68.0906 109.241 68.1279 109.278C68.1651 109.315 68.2159 109.335 68.2836 109.335H70.5323C70.5966 109.335 70.6508 109.315 70.6881 109.278C70.7253 109.241 70.7456 109.187 70.7456 109.123V105.529C70.7456 105.482 70.7693 105.458 70.8167 105.458H73.0349C73.0823 105.458 73.106 105.482 73.106 105.529V109.123C73.106 109.19 73.1263 109.241 73.1636 109.278C73.2008 109.315 73.2516 109.335 73.3194 109.335H75.568C75.6323 109.335 75.6865 109.315 75.7238 109.278C75.761 109.241 75.7813 109.187 75.7813 109.123V99.6446C75.7813 99.5772 75.761 99.5267 75.7238 99.4897C75.6865 99.4526 75.6323 99.4324 75.568 99.4324H73.3194C73.2516 99.4324 73.2008 99.4526 73.1636 99.4897C73.1263 99.5267 73.106 99.5806 73.106 99.6446ZM58.7439 102.167C57.9751 102.167 57.4028 102.417 57.0235 102.912C57.0134 102.939 56.9998 102.949 56.9829 102.939C56.9626 102.929 56.9558 102.912 56.9558 102.885V102.444C56.9558 102.396 56.9389 102.359 56.9084 102.326C56.8745 102.292 56.8373 102.279 56.7899 102.279H55.5132C55.4658 102.279 55.4285 102.295 55.3946 102.326C55.3608 102.359 55.3472 102.396 55.3472 102.444V109.17C55.3472 109.217 55.3642 109.254 55.3946 109.288C55.4285 109.321 55.4658 109.335 55.5132 109.335H56.7899C56.8373 109.335 56.8745 109.318 56.9084 109.288C56.9423 109.254 56.9558 109.217 56.9558 109.17V104.956C56.9558 104.532 57.0777 104.192 57.3249 103.936C57.5688 103.68 57.8905 103.548 58.2901 103.548C58.6897 103.548 59.008 103.68 59.2485 103.942C59.4889 104.205 59.6108 104.549 59.6108 104.97V109.166C59.6108 109.214 59.6278 109.251 59.6582 109.284C59.6921 109.318 59.7294 109.332 59.7768 109.332H61.0535C61.1009 109.332 61.1381 109.315 61.172 109.284C61.2059 109.251 61.2194 109.214 61.2194 109.166V104.636C61.2194 103.872 60.9959 103.269 60.5455 102.828C60.0951 102.386 59.4957 102.164 58.7473 102.164M50.4707 108.169C50.1286 108.169 49.8475 108.089 49.6308 107.927C49.4141 107.765 49.3057 107.54 49.3057 107.243C49.3057 106.903 49.4479 106.64 49.729 106.455C50.0101 106.27 50.3962 106.179 50.8872 106.179H52.0522C52.0996 106.179 52.1233 106.202 52.1233 106.246V106.896C52.1233 107.263 51.9607 107.57 51.6356 107.809C51.3105 108.048 50.9211 108.169 50.4707 108.169ZM50.8025 102.164C49.9966 102.164 49.3294 102.343 48.7977 102.703C48.2661 103.063 47.9613 103.521 47.8868 104.084C47.8766 104.121 47.8868 104.151 47.9206 104.175C47.9545 104.198 47.9917 104.215 48.0392 104.222L49.387 104.387C49.4886 104.407 49.5529 104.36 49.58 104.249C49.6342 104.027 49.7731 103.855 49.9898 103.73C50.2065 103.606 50.491 103.545 50.8432 103.545C51.2699 103.545 51.5882 103.643 51.8016 103.841C52.0149 104.04 52.1199 104.316 52.1199 104.677V105.007C52.1199 105.054 52.0962 105.074 52.0488 105.074H50.5621C49.6444 105.074 48.9366 105.276 48.432 105.674C47.9274 106.074 47.6734 106.634 47.6734 107.351C47.6734 108.068 47.8969 108.564 48.3473 108.911C48.7943 109.261 49.3667 109.436 50.0609 109.436C50.9211 109.436 51.5781 109.187 52.0318 108.692C52.0488 108.675 52.0691 108.665 52.086 108.671C52.103 108.675 52.1131 108.692 52.1131 108.719V109.16C52.1131 109.207 52.1301 109.244 52.1605 109.278C52.1944 109.311 52.2316 109.325 52.2791 109.325H53.5558C53.6032 109.325 53.6404 109.308 53.6743 109.278C53.7082 109.244 53.7217 109.207 53.7217 109.16V104.505C53.7217 104.054 53.5998 103.653 53.3594 103.296C53.1189 102.942 52.7769 102.663 52.3332 102.46C51.8896 102.258 51.3749 102.157 50.7924 102.157M43.5453 103.538C43.9144 103.538 44.2226 103.629 44.4698 103.814C44.7136 104 44.8796 104.256 44.9642 104.589C45.0015 104.71 45.0286 104.886 45.0489 105.115C45.0489 105.162 45.0252 105.182 44.9778 105.182H42.1602C42.106 105.182 42.0857 105.158 42.106 105.115C42.123 104.865 42.1602 104.663 42.2178 104.508C42.3092 104.205 42.4684 103.969 42.6953 103.798C42.9222 103.626 43.2066 103.542 43.5487 103.542M46.6304 105.007C46.4001 103.11 45.3706 102.161 43.5487 102.161C42.8273 102.161 42.2076 102.346 41.6963 102.72C41.1815 103.094 40.8327 103.602 40.6464 104.246C40.5347 104.576 40.4805 105.01 40.4805 105.542C40.4805 106.425 40.5855 107.115 40.7988 107.614C41.0291 108.193 41.3982 108.644 41.9028 108.968C42.4074 109.291 43.0204 109.453 43.7417 109.453C44.3242 109.453 44.8559 109.342 45.33 109.123C45.8075 108.9 46.1901 108.591 46.4746 108.183C46.5288 108.099 46.5152 108.028 46.434 107.961L45.5738 107.257C45.5467 107.23 45.5128 107.216 45.4756 107.216C45.4214 107.216 45.374 107.243 45.3367 107.301C44.9676 107.816 44.4664 108.075 43.8365 108.075C42.9763 108.065 42.4345 107.732 42.211 107.068C42.1568 106.957 42.1128 106.751 42.0857 106.448C42.0857 106.401 42.1094 106.378 42.1568 106.378H46.5017C46.6134 106.378 46.6676 106.324 46.6676 106.213L46.6812 105.785C46.6812 105.499 46.6609 105.243 46.627 105.01M37.0872 107.482C36.8366 107.87 36.4675 108.062 35.9765 108.062C35.5227 108.062 35.1772 107.86 34.9334 107.455C34.7031 107.078 34.588 106.526 34.588 105.798C34.588 105.071 34.693 104.555 34.9063 104.195C35.1468 103.754 35.5091 103.532 35.99 103.532C36.5183 103.532 36.9111 103.757 37.1719 104.209C37.3954 104.596 37.5038 105.125 37.5038 105.798C37.5038 106.472 37.3649 107.058 37.0872 107.482ZM38.8922 104.101C38.689 103.494 38.3606 103.02 37.9068 102.679C37.453 102.339 36.8976 102.167 36.2406 102.167C35.5836 102.167 35.0519 102.407 34.6422 102.885C34.6252 102.912 34.6049 102.922 34.588 102.912C34.5677 102.902 34.5609 102.885 34.5609 102.858V102.444C34.5609 102.396 34.544 102.359 34.5135 102.326C34.4796 102.292 34.4424 102.279 34.395 102.279H33.1183C33.0708 102.279 33.0336 102.295 32.9997 102.326C32.9659 102.359 32.9523 102.396 32.9523 102.444V111.78C32.9523 111.827 32.9692 111.864 32.9997 111.898C33.0336 111.928 33.0708 111.945 33.1183 111.945H34.395C34.4424 111.945 34.4796 111.928 34.5135 111.898C34.5474 111.864 34.5609 111.827 34.5609 111.78V108.783C34.5609 108.756 34.5711 108.735 34.588 108.729C34.6083 108.719 34.6252 108.725 34.6422 108.742C35.0418 109.21 35.5667 109.446 36.2237 109.446C36.8807 109.446 37.4767 109.274 37.9237 108.934C38.3707 108.594 38.6992 108.119 38.9024 107.513C39.0582 107.045 39.1394 106.482 39.1394 105.829C39.1394 105.175 39.0548 104.572 38.8888 104.104M28.1706 108.068C27.8082 108.068 27.5001 107.971 27.2461 107.779C26.9921 107.587 26.8126 107.314 26.711 106.964C26.6196 106.64 26.5722 106.256 26.5722 105.805C26.5722 105.354 26.6196 104.966 26.711 104.646C26.8228 104.296 27.0022 104.027 27.2528 103.838C27.5034 103.649 27.7981 103.555 28.1401 103.555C28.5025 103.555 28.8072 103.649 29.0578 103.838C29.3084 104.027 29.4845 104.296 29.5861 104.646C29.6776 104.923 29.725 105.31 29.725 105.805C29.725 106.273 29.6776 106.661 29.5861 106.964C29.4744 107.314 29.2949 107.587 29.0511 107.779C28.8072 107.971 28.5126 108.068 28.1706 108.068ZM28.1706 109.449C28.8817 109.449 29.4981 109.264 30.0162 108.89C30.5344 108.516 30.9001 108.004 31.1134 107.351C31.2726 106.883 31.3505 106.357 31.3505 105.778C31.3505 105.199 31.2658 104.646 31.0999 104.205C30.8866 103.569 30.5242 103.073 30.0094 102.713C29.4947 102.353 28.8851 102.174 28.1841 102.174C27.4425 102.174 26.8092 102.353 26.2809 102.713C25.7526 103.073 25.3835 103.575 25.1701 104.219C25.0211 104.68 24.9466 105.202 24.9466 105.792C24.9466 106.344 25.0245 106.869 25.1837 107.365C25.397 108.018 25.7628 108.53 26.2877 108.897C26.8092 109.264 27.4391 109.449 28.1706 109.449ZM23.3787 102.201C22.6845 102.201 22.1426 102.501 21.7532 103.097C21.7329 103.124 21.7193 103.137 21.7058 103.131C21.6922 103.124 21.6854 103.104 21.6854 103.067V102.447C21.6854 102.4 21.6685 102.363 21.638 102.329C21.6042 102.295 21.5669 102.282 21.5195 102.282H20.2428C20.1954 102.282 20.1581 102.299 20.1243 102.329C20.0904 102.363 20.0769 102.4 20.0769 102.447V109.173C20.0769 109.22 20.0938 109.257 20.1243 109.291C20.1581 109.325 20.1954 109.338 20.2428 109.338H21.5195C21.5669 109.338 21.6042 109.321 21.638 109.291C21.6685 109.257 21.6854 109.22 21.6854 109.173V105.266C21.6854 104.862 21.8141 104.532 22.0749 104.279C22.3323 104.027 22.6574 103.892 23.0468 103.872C23.1112 103.862 23.206 103.858 23.3245 103.858C23.5108 103.858 23.6733 103.882 23.8122 103.926C23.9307 103.973 23.9984 103.939 24.0052 103.828L24.2422 102.585C24.2626 102.484 24.2321 102.413 24.1576 102.376C23.9341 102.258 23.6767 102.198 23.3787 102.198M16.7547 102.447V106.644C16.7547 107.075 16.6294 107.422 16.3788 107.681C16.1282 107.94 15.7963 108.068 15.3798 108.068C14.9632 108.068 14.6551 107.94 14.4282 107.681C14.2013 107.425 14.0895 107.078 14.0895 106.644V102.447C14.0895 102.4 14.0726 102.363 14.0421 102.329C14.0116 102.295 13.971 102.282 13.9236 102.282H12.6469C12.5995 102.282 12.5622 102.299 12.5284 102.329C12.4945 102.363 12.4809 102.4 12.4809 102.447V107.102C12.4809 107.846 12.718 108.422 13.1955 108.826C13.673 109.23 14.2622 109.433 14.9666 109.433C15.7252 109.433 16.2941 109.19 16.6734 108.702C16.6904 108.675 16.7107 108.665 16.7276 108.675C16.7445 108.685 16.7547 108.702 16.7547 108.729V109.17C16.7547 109.217 16.7716 109.254 16.8021 109.288C16.8326 109.321 16.8732 109.335 16.9206 109.335H18.1838C18.2312 109.335 18.2685 109.318 18.3023 109.288C18.3362 109.257 18.3497 109.217 18.3497 109.17V102.444C18.3497 102.396 18.3328 102.359 18.3023 102.326C18.2719 102.292 18.2312 102.279 18.1838 102.279H16.9206C16.8732 102.279 16.836 102.295 16.8021 102.326C16.7682 102.356 16.7547 102.396 16.7547 102.444M11.0755 100.884V99.8332C11.0755 99.7861 11.0586 99.749 11.0281 99.7153C10.9943 99.6817 10.957 99.6682 10.9096 99.6682H4.67506C4.62765 99.6682 4.5904 99.685 4.55654 99.7153C4.52267 99.749 4.50912 99.7861 4.50912 99.8332V109.17C4.50912 109.217 4.52606 109.254 4.55654 109.288C4.5904 109.321 4.62765 109.335 4.67506 109.335H10.9232C10.9706 109.335 11.0078 109.318 11.0417 109.288C11.0755 109.254 11.0891 109.217 11.0891 109.17V108.119C11.0891 108.072 11.0722 108.035 11.0417 108.001C11.0078 107.967 10.9706 107.954 10.9232 107.954H6.18883C6.14142 107.954 6.11771 107.93 6.11771 107.887V105.222C6.11771 105.175 6.14142 105.155 6.18883 105.155H9.36875C9.41616 105.155 9.45341 105.138 9.48728 105.108C9.52114 105.074 9.53469 105.037 9.53469 104.99V103.939C9.53469 103.892 9.51775 103.855 9.48728 103.821C9.45341 103.787 9.41616 103.774 9.36875 103.774H6.18883C6.14142 103.774 6.11771 103.75 6.11771 103.707V101.123C6.11771 101.076 6.14142 101.053 6.18883 101.053H10.9232C10.9706 101.053 11.0078 101.036 11.0417 101.005C11.0755 100.972 11.0891 100.935 11.0891 100.887" fill="#84134F"/>
</g>
</g>
<defs>
<clipPath id="clip0_110_14">
<rect width="155" height="124" fill="white"/>
</clipPath>
</defs>
</svg>
