<svg width="47" height="31" viewBox="0 0 47 31" fill="none" xmlns="http://www.w3.org/2000/svg">
<path d="M0 30.9997V0.000976562H47V30.9997H0ZM19.2885 8.07274C19.3038 8.06518 19.3185 8.05704 19.3338 8.04948C19.218 7.68768 19.1023 7.32589 18.9871 6.96467C19.3126 6.72852 19.6153 6.50806 19.9179 6.2882C19.9114 6.26725 19.9044 6.2469 19.8979 6.22596H18.7468C18.6181 5.84089 18.4994 5.4855 18.3607 5.07019C18.2179 5.49539 18.0963 5.85834 17.9711 6.23061C17.7637 6.23061 17.5792 6.23061 17.3941 6.23061C17.209 6.23061 17.0156 6.23061 16.8264 6.23061C16.8211 6.25155 16.8153 6.27249 16.81 6.29343C17.1191 6.51853 17.4287 6.74306 17.729 6.96176C17.6291 7.35322 17.4769 7.69233 17.3835 8.10881C17.7478 7.85171 18.0545 7.63417 18.3625 7.41721C18.6868 7.64697 18.9877 7.86044 19.2891 8.07391L19.2885 8.07274ZM15.5307 11.7971C15.5454 11.789 15.5601 11.7809 15.5742 11.7727C15.4626 11.4173 15.3515 11.0619 15.2387 10.7025C15.5202 10.4279 15.8851 10.2709 16.1953 9.95036H14.9919C14.9237 9.74736 14.8632 9.56471 14.8015 9.38207C14.7427 9.20932 14.6822 9.03714 14.6005 8.80041C14.4572 9.23084 14.3385 9.58624 14.2127 9.96257H13.071C13.0651 9.98002 13.0592 9.99689 13.0533 10.0143C13.3618 10.2406 13.6703 10.4669 13.9694 10.6862C13.8783 11.0747 13.7185 11.4132 13.6321 11.8286C13.9912 11.5744 14.2985 11.3568 14.6058 11.1387C14.9296 11.3696 15.2305 11.5831 15.5307 11.7971ZM29.2657 6.97165C29.5677 6.71107 29.915 6.54064 30.2364 6.22247H29.0207C28.8961 5.84671 28.778 5.49131 28.6381 5.07077C28.4953 5.49539 28.3737 5.85718 28.2462 6.23759H27.1039C27.0968 6.25562 27.0903 6.27365 27.0833 6.29169C27.3912 6.51621 27.6991 6.74015 28.0076 6.96525C27.8901 7.34275 27.7802 7.69466 27.6709 8.04599C27.6868 8.05355 27.7026 8.06169 27.7185 8.06925C28.0252 7.85113 28.3314 7.63301 28.6381 7.41488C28.966 7.64638 29.2675 7.85985 29.5695 8.07333C29.5813 8.06111 29.593 8.04889 29.6053 8.03668C29.4943 7.68884 29.3838 7.34101 29.2663 6.97165H29.2657ZM34.3774 15.7467C34.6918 15.5175 35.0009 15.2918 35.3099 15.0661C35.3023 15.0452 35.2952 15.0242 35.2876 15.0033H34.1341C34.0066 14.6229 33.8891 14.2721 33.7715 13.922C33.7557 13.9231 33.7404 13.9243 33.7245 13.9249C33.6029 14.2867 33.4807 14.6485 33.3567 15.0172H32.1956C32.1885 15.0318 32.1815 15.0469 32.1744 15.0615C32.4864 15.2854 32.7985 15.5093 33.1234 15.7426C33.0065 16.1102 32.8942 16.4656 32.7814 16.8204C32.7955 16.8315 32.8102 16.8425 32.8243 16.8536C33.1275 16.6366 33.4307 16.4196 33.7475 16.1934C34.0648 16.4191 34.3692 16.6354 34.673 16.8518C34.6876 16.8413 34.7023 16.8309 34.717 16.821C34.6048 16.4662 34.4931 16.1119 34.3774 15.7467ZM13.8566 15.7571C14.1769 15.5256 14.4795 15.3069 14.7821 15.0882C14.7756 15.069 14.7686 15.0498 14.7621 15.0306H13.6345C13.4553 14.6653 13.4059 14.2803 13.2173 13.89C13.081 14.3012 12.9628 14.6566 12.8383 15.0324H11.6977C11.6895 15.0516 11.6818 15.0713 11.6736 15.0905C11.9827 15.3127 12.2924 15.5355 12.585 15.7455C12.518 16.1468 12.3329 16.4732 12.2648 16.8931C12.6161 16.643 12.9158 16.4301 13.2279 16.2079C13.544 16.4336 13.8501 16.6517 14.218 16.9141C14.0864 16.4923 13.9759 16.1375 13.8572 15.756L13.8566 15.7571ZM21.8923 25.1888C22.2213 25.4901 22.5727 25.6629 22.8589 25.9223C22.7872 26.2835 22.6015 26.6098 22.5545 27.0315C22.8953 26.7936 23.1933 26.5854 23.4982 26.3725C23.8155 26.5965 24.1146 26.807 24.4137 27.0176C24.4284 27.0094 24.4431 27.0007 24.4578 26.9926C24.3479 26.6378 24.2386 26.2829 24.1287 25.9275C24.4255 25.66 24.774 25.4878 25.0284 25.1807H23.882C23.8185 24.9911 23.7609 24.8177 23.7033 24.6444C23.6434 24.4647 23.5846 24.2843 23.5247 24.1046L23.4665 24.1075C23.346 24.467 23.2262 24.8264 23.1045 25.1888H21.8917H21.8923ZM33.322 11.7878C33.335 11.7785 33.3479 11.7692 33.3608 11.7599C33.2462 11.4045 33.1322 11.0485 33.0118 10.6745C33.3261 10.4459 33.6358 10.2197 33.9925 9.95967C33.5365 9.92709 33.1481 9.96723 32.772 9.93175C32.6457 9.55483 32.5287 9.20757 32.4124 8.85974C32.3936 8.86206 32.3748 8.86439 32.356 8.86614C32.2379 9.22037 32.1198 9.57518 32.0005 9.93349C31.6027 9.96897 31.2184 9.91546 30.787 9.9713C31.1384 10.2243 31.444 10.4448 31.7572 10.6705C31.6403 11.0445 31.5298 11.3987 31.4199 11.7524C31.4352 11.7605 31.4505 11.7681 31.4663 11.7762C31.7742 11.5581 32.0816 11.3405 32.3895 11.1224C32.7097 11.351 33.0165 11.5697 33.3226 11.7884L33.322 11.7878ZM18.9971 24.5688C19.3173 24.3378 19.6288 24.1127 19.9402 23.8876C19.9343 23.8702 19.9285 23.8533 19.9226 23.8359H18.755C18.6287 23.4578 18.5105 23.103 18.3918 22.7487C18.376 22.7487 18.3601 22.7487 18.3448 22.7487C18.2232 23.1094 18.1016 23.47 17.9729 23.8504H16.8358C16.8305 23.8667 16.8253 23.8836 16.8194 23.8999C17.1285 24.125 17.437 24.3501 17.7396 24.5705C17.6191 24.9532 17.5092 25.3034 17.3988 25.6542C17.414 25.6617 17.4299 25.6693 17.4452 25.6768C17.7513 25.4581 18.0581 25.24 18.3683 25.0184C18.6868 25.2441 18.9906 25.4605 19.295 25.6763C19.3085 25.6658 19.322 25.6559 19.3361 25.6454C19.2245 25.29 19.1123 24.9352 18.9971 24.5676V24.5688ZM29.2487 24.5699C29.5777 24.3314 29.8815 24.111 30.1847 23.8911C30.1777 23.8719 30.1712 23.8522 30.1642 23.833H29.0089C28.882 23.4549 28.7651 23.1053 28.6481 22.7557C28.6299 22.7575 28.6123 22.7592 28.5941 22.761C28.4759 23.1152 28.3578 23.4694 28.2309 23.8498H27.0745C27.0709 23.8661 27.0674 23.883 27.0639 23.8993C27.3695 24.1186 27.6756 24.3378 27.9823 24.5583C27.9177 24.9416 27.7308 25.2726 27.6639 25.7013C28.0241 25.4465 28.3243 25.2336 28.6252 25.0207C28.9455 25.2493 29.251 25.4674 29.5566 25.6856C29.5695 25.6757 29.5824 25.6658 29.5954 25.6559C29.4819 25.3005 29.3685 24.9451 29.2487 24.5705V24.5699ZM31.756 20.842C31.6967 21.0369 31.645 21.212 31.5903 21.3859C31.5333 21.565 31.4734 21.743 31.4146 21.921C31.4317 21.9303 31.4487 21.9402 31.4657 21.9495C31.7719 21.732 32.0775 21.515 32.383 21.2981C32.7221 21.5057 32.9988 21.7721 33.372 21.9711C33.2427 21.5674 33.1287 21.2108 33.0129 20.8496C33.3197 20.5995 33.654 20.4093 33.919 20.112H32.775C32.651 19.7415 32.5329 19.3885 32.4142 19.0348C32.3971 19.0325 32.3807 19.0296 32.3636 19.0272C32.242 19.3873 32.1198 19.7473 31.9987 20.1051C31.5974 20.1464 31.2142 20.0853 30.787 20.1452C31.1302 20.3918 31.4287 20.6065 31.7554 20.842H31.756ZM14.6364 19.0406C14.6176 19.0371 14.5988 19.0336 14.5794 19.0296C14.4601 19.3855 14.3408 19.7415 14.2209 20.0987C13.8313 20.1557 13.4465 20.0789 13.0157 20.1481C13.3671 20.4035 13.6715 20.6245 13.9777 20.8473C13.8584 21.2213 13.745 21.5761 13.6321 21.9309C13.6451 21.9402 13.6586 21.9489 13.6715 21.9583C13.9777 21.7407 14.2838 21.5226 14.6052 21.294C14.9178 21.5168 15.2269 21.7372 15.536 21.9577L15.5748 21.9234C15.4614 21.568 15.348 21.2126 15.2299 20.8426C15.3962 20.724 15.5583 20.6169 15.7105 20.4977C15.8551 20.3837 16.0431 20.3174 16.1571 20.1184C15.824 20.1184 15.5213 20.1202 15.2193 20.1179C14.9931 20.1161 14.9931 20.1138 14.9184 19.891C14.8238 19.6077 14.7304 19.3245 14.6364 19.0412V19.0406ZM23.4906 6.04855C23.8073 6.27191 24.107 6.48363 24.4067 6.69536C24.4226 6.68547 24.4384 6.67617 24.4543 6.66628C24.3456 6.31204 24.2375 5.95723 24.1264 5.59543C24.4478 5.3616 24.7493 5.14231 25.0507 4.92303C25.0437 4.90558 25.0366 4.88813 25.0296 4.87068H23.8843C23.7586 4.49899 23.6399 4.1465 23.5206 3.79401L23.463 3.7975C23.3443 4.14999 23.2262 4.5019 23.1004 4.87475H21.9575C21.9516 4.89104 21.9463 4.90732 21.9405 4.92419C22.2495 5.15104 22.5586 5.37789 22.8636 5.60125C22.7437 5.98282 22.6333 6.33531 22.5228 6.6878C22.5369 6.69536 22.551 6.70234 22.5651 6.7099C22.8654 6.49527 23.1656 6.28005 23.49 6.04855H23.4906Z" fill="#D5D2B8"/>
</svg>