<svg width="431px" height="33px" viewBox="0 0 431 33" version="1.1" xmlns="http://www.w3.org/2000/svg" xmlns:xlink="http://www.w3.org/1999/xlink">
    <g stroke="none" stroke-width="1" fill="none" fill-rule="evenodd">
        <g fill="#1D1D1B" fill-rule="nonzero">
            <path d="M423.14,20.61 L419.3,11.14 C419.186403,10.8528501 419.122165,10.5485633 419.11,10.24 C419.11,9.51 419.65,9.35 421.28,9.16 L421.28,8.1 L412.58,8.1 L412.58,9.16 C413.73,9.48 413.92,9.7 414.21,10.37 L421.09,25.67 L420.55,27.04 C420.11302,28.5423359 418.639582,29.4962376 417.09,29.28 C416.354235,29.2820878 415.621356,29.1879565 414.91,29 L414.91,30.63 C415.34802,31.585529 416.331238,32.1706835 417.38,32.1 C419.46,32.1 420.55,30.69 421.6,28.1 L428.6,10.37 C428.89,9.7 429.11,9.48 430.23,9.16 L430.23,8.1 L424.73,8.1 L424.73,9.16 C426.39,9.35 426.91,9.51 426.91,10.24 C426.895907,10.5526047 426.817615,10.858962 426.68,11.14 L423.14,20.61 Z M406.04,13.51 C407.67,11.88 409.24,11.78 411.22,11.78 L411.83,11.78 L411.83,8.32 C411.465001,7.93730126 410.94726,7.73901751 410.42,7.78 C408.53,7.78 407.57,9.03 406.04,12.52 L406.17,7.78 L405.43,7.78 L399.7,9.54 L399.7,10.15 L401.62,11.27 L401.62,22.6 C401.62,23.72 401.11,23.91 399.62,24 L399.62,25.06 L408.77,25.06 L408.77,24 C406.77,23.84 406.05,23.65 406.05,22.34 L406.04,13.51 Z M396.25,13.03 C396.25,9.28 394.01,7.78 389.91,7.78 C386.36,7.78 383.61,9.16 383.61,11.78 C383.569739,12.6899623 384.149409,13.5121887 385.02,13.78 L387.67,13.43 C387.512044,12.7747971 387.428184,12.1039245 387.42,11.43 C387.42,9.9 388.02,8.74 389.56,8.74 C391.1,8.74 391.83,10.06 391.83,11.88 L391.83,14.6 L387,16.42 C384.6,17.32 382.62,18.42 382.62,21.19 C382.62,23.75 384.34,25.32 386.94,25.32 C388.949695,25.2436981 390.80444,24.2198787 391.94,22.56 C392.092547,24.1985997 393.495225,25.4347097 395.14,25.38 C396.552277,25.3997257 397.89632,24.7737333 398.79,23.68 L398.59,22.98 C398.190917,23.1764032 397.754557,23.2854932 397.31,23.3 C396.48,23.3 396.31,22.6 396.31,21.51 L396.25,13.03 Z M389.37,22.82 C387.67,22.82 386.9,21.64 386.9,19.97 C386.800523,18.572949 387.720531,17.3068836 389.08,16.97 L391.83,15.85 L391.83,21.85 C391.155493,22.466032 390.283015,22.8206976 389.37,22.85 M376.31,13.54 C377.94,11.91 379.51,11.81 381.49,11.81 L382.1,11.81 L382.1,8.32 C381.737491,7.93357817 381.217894,7.73458362 380.69,7.78 C378.81,7.78 377.85,9.03 376.31,12.52 L376.44,7.78 L375.7,7.78 L370,9.54 L370,10.15 L371.92,11.27 L371.92,22.6 C371.92,23.72 371.41,23.91 369.92,24 L369.92,25.06 L379,25.06 L379,24 C377,23.84 376.28,23.65 376.28,22.34 L376.31,13.54 Z M360.31,24.23 C358.36,24.23 357.4,22.98 357.4,20.55 L357.4,11.62 C358.171681,10.9148106 359.174766,10.5164222 360.22,10.5 C363.22,10.5 364.67,13.22 364.67,17.15 C364.67,21.08 363.03,24.23 360.31,24.23 M352.95,3.23 L352.95,23.17 C355.097208,24.7222933 357.702371,25.5108831 360.35,25.41 C365.27,25.41 369.15,21.86 369.15,15.59 C369.15,10.66 366.68,7.81 362.78,7.81 C360.588229,7.81114542 358.553017,8.94602175 357.4,10.81 L357.4,0 L356.7,0 L351,1.54 L351,2.21 L352.95,3.23 Z M346.85,5.82 C348.238992,5.78705015 349.341525,4.64015804 349.319687,3.25094657 C349.29785,1.86173511 348.159814,0.750063228 346.770473,0.760786925 C345.381131,0.771510622 344.260391,1.90061697 344.26,3.29 C344.259808,3.97152394 344.534582,4.62430193 345.022106,5.10053207 C345.50963,5.5767622 346.168668,5.83616265 346.85,5.82 M349.12,7.74 L348.42,7.74 L342.78,9.5 L342.78,10.11 L344.7,11.23 L344.7,22.56 C344.7,23.68 344.19,23.87 342.7,23.96 L342.7,25.02 L351.15,25.02 L351.15,23.96 C349.64,23.87 349.15,23.68 349.15,22.56 L349.12,7.74 Z M330.8,5.92 C330.8,4.16 331.12,3.92 333.36,3.72 L333.36,2.6 L323.54,2.6 L323.54,3.72 C325.78,3.97 326.1,4.16 326.1,5.92 L326.1,21.73 C326.1,23.49 325.78,23.68 323.54,23.94 L323.54,25.06 L340.79,25.06 L341.91,18.12 L340.79,18.12 C338.48,22.24 337.4,23.78 334.96,23.78 L333.59,23.78 C331.59,23.78 330.8,23.33 330.8,21.6 L330.8,5.92 Z M311.54,3.92 L310.54,3.92 C309.213505,6.03503151 307.317675,7.7333067 305.07,8.82 L305.07,9.55 L307.07,9.55 L307.07,20.42 C307.07,24 308.99,25.42 311.62,25.42 C313.634881,25.4535177 315.512943,24.4037881 316.54,22.67 L316.16,22.09 C315.49188,22.664843 314.641357,22.9837888 313.76,22.99 C312.26,22.99 311.52,22.16 311.52,20.2 L311.52,9.57 L315.68,9.57 L315.68,8.1 L311.52,8.1 L311.54,3.92 Z M298.13,25.36 C302.07,25.36 304.63,23.36 304.63,19.95 C304.63,16.82 302.63,15.5 299.12,14.29 C296.66,13.39 295.67,12.69 295.67,11.22 C295.656347,10.5504053 295.933974,9.90784572 296.430924,9.45886413 C296.927873,9.00988254 297.595221,8.79868096 298.26,8.88 C300.53,8.88 301.88,10.74 302.39,13.04 L303.48,13.04 L303.48,9.17 C301.91081,8.21009136 300.099087,7.72071795 298.26,7.76 C294.74,7.76 292.31,9.65 292.31,12.85 C292.31,15.85 294.07,17.17 297.49,18.35 C300.02,19.25 301.2,19.92 301.2,21.65 C301.2,23.38 299.89,24.24 298.2,24.24 C295.74,24.24 294.11,22.16 293.4,19.38 L292.22,19.38 L292.41,23.76 C294.118162,24.8765527 296.130688,25.4355877 298.17,25.36 M288.91,11.54 L289,7.82 L288.3,7.82 L282.47,9.04 L282.47,10.04 L282.95,10.13 C284.2,10.36 284.43,10.87 284.43,11.93 L284.43,21.56 C283.489901,22.2891701 282.348303,22.7115959 281.16,22.77 C279.4,22.77 278.67,21.62 278.67,19.67 L278.67,11.67 L278.83,7.86 L278.12,7.86 L272.23,9.08 L272.23,10.08 L272.75,10.17 C273.99,10.4 274.22,10.91 274.22,11.97 L274.22,20.29 C274.22,23.87 276.04,25.47 278.86,25.47 C281.39,25.47 283.08,23.9 284.43,22.4 L284.33,25.47 L285.13,25.47 L290.95,24.32 L290.95,23.32 L290.15,23.25 C288.94,23.16 288.87,22.81 288.87,21.72 L288.91,11.54 Z M270.44,13.01 C270.44,9.26 268.2,7.76 264.11,7.76 C260.55,7.76 257.8,9.14 257.8,11.76 C257.759739,12.6699623 258.339409,13.4921887 259.21,13.76 L261.87,13.41 C261.708674,12.7551803 261.62146,12.0843024 261.61,11.41 C261.61,9.88 262.22,8.72 263.75,8.72 C265.28,8.72 266.03,10.04 266.03,11.86 L266.03,14.58 L261.19,16.34 C258.79,17.24 256.81,18.34 256.81,21.11 C256.81,23.67 258.54,25.24 261.13,25.24 C263.140134,25.1652803 264.995544,24.1410938 266.13,22.48 C266.282547,24.1185997 267.685225,25.3547097 269.33,25.3 C270.742912,25.3226966 272.088186,24.6961308 272.98,23.6 L272.79,22.9 C272.390917,23.0964032 271.954557,23.2054932 271.51,23.22 C270.68,23.22 270.45,22.52 270.45,21.43 L270.44,13.01 Z M263.52,22.82 C261.83,22.82 261.06,21.64 261.06,19.97 C260.955346,18.5747326 261.872089,17.3073457 263.23,16.97 L266,15.82 L266,21.82 C265.320539,22.4344757 264.44557,22.7887144 263.53,22.82 M245.53,15.3 C245.53,11.75 246.94,9 249.38,9 C251.17,9 251.71,10.4 251.71,12.1 C251.704245,12.6257677 251.660801,13.1504463 251.58,13.67 L254,13.67 C254.784658,13.2459154 255.258366,12.411103 255.22,11.52 C255.22,9.06 253.04,7.78 249.91,7.78 C244.85,7.78 241.62,11.78 241.62,17.16 C241.62,22.16 244.79,25.38 249.08,25.38 C252.34,25.38 254.71,23.65 255.7,20.16 L255.16,19.84 C254.207358,21.3844056 252.492755,22.2914616 250.68,22.21 C247.45,22.21 245.52,19.49 245.52,15.3 M232.06,25.38 C236.82,25.38 240.38,21.67 240.38,16.23 C240.38,11.17 237.05,7.78 232.15,7.78 C227.25,7.78 223.83,11.52 223.83,16.96 C223.83,22.05 227.16,25.38 232.06,25.38 M232.22,24.23 C229.66,24.23 228.54,20.58 228.54,15.84 C228.54,11.65 229.62,8.96 231.99,8.96 C234.55,8.96 235.64,12.58 235.64,17.32 C235.64,21.51 234.64,24.23 232.22,24.23 M221.36,1.13686838e-13 L220.66,1.13686838e-13 L215,1.54 L215,2.21 L216.92,3.21 L216.92,22.61 C216.92,23.73 216.41,23.92 214.92,24.01 L214.92,25.07 L223.33,25.07 L223.33,24.01 C221.86,23.92 221.33,23.73 221.33,22.61 L221.36,1.13686838e-13 Z M206,25.38 C210.77,25.38 214.32,21.67 214.32,16.23 C214.32,11.17 210.99,7.78 206.1,7.78 C201.21,7.78 197.78,11.52 197.78,16.96 C197.78,22.05 201.11,25.38 206,25.38 M206.16,24.23 C203.6,24.23 202.48,20.58 202.48,15.84 C202.48,11.65 203.57,8.96 205.94,8.96 C208.5,8.96 209.59,12.58 209.59,17.32 C209.59,21.51 208.53,24.23 206.16,24.23 M180.16,5.92 C180.16,4.16 180.48,3.92 182.72,3.72 L182.72,2.6 L173,2.6 L173,3.72 C175.24,3.97 175.56,4.16 175.56,5.92 L175.56,21.73 C175.56,23.49 175.24,23.68 173,23.94 L173,25.06 L182.82,25.06 L182.82,23.94 C180.58,23.68 180.26,23.49 180.26,21.73 L180.26,14.34 L189.89,14.34 L189.89,21.73 C189.89,23.49 189.57,23.68 187.33,23.94 L187.33,25.06 L197.13,25.06 L197.13,23.94 C194.88,23.68 194.56,23.49 194.56,21.73 L194.56,5.92 C194.56,4.16 194.88,3.92 197.13,3.72 L197.13,2.6 L187.33,2.6 L187.33,3.72 C189.57,3.97 189.89,4.16 189.89,5.92 L189.89,12.82 L180.26,12.82 L180.16,5.92 Z M159.55,13.51 C161.18,11.88 162.75,11.78 164.74,11.78 L165.34,11.78 L165.34,8.32 C164.98709,7.9667204 164.49807,7.7842501 164,7.82 C162.11,7.82 161.15,9.07 159.61,12.56 L159.74,7.82 L159,7.82 L153.28,9.58 L153.28,10.19 L155.2,11.31 L155.2,22.64 C155.2,23.76 154.68,23.95 153.2,24.04 L153.2,25.1 L162.35,25.1 L162.35,24.04 C160.35,23.88 159.63,23.69 159.63,22.38 L159.55,13.51 Z M145.24,8.96 C147.32,8.96 148.12,11.01 148.12,14.02 L141.72,14.02 C141.98,11.08 143.13,8.96 145.24,8.96 M145.56,7.78 C141.18,7.78 137.66,11.56 137.66,17.03 C137.66,21.96 140.76,25.38 145.4,25.38 C148.68143,25.5129625 151.578275,23.2546928 152.25,20.04 L151.74,19.75 C150.727965,21.4046372 148.908891,22.3923521 146.97,22.34 C143.83,22.34 141.53,19.68 141.66,15.2 L152.09,15.2 L152.09,14.47 C152.09,10.63 149.85,7.78 145.56,7.78 M130.67,22.6 C130.67,23.72 130.19,23.91 128.72,24 L128.72,25.06 L137.11,25.06 L137.11,24 C135.63,23.91 135.11,23.72 135.11,22.6 L135.11,13 C135.11,9.51 133.54,7.78 130.54,7.78 C128.190015,7.86515266 126.008553,9.02221158 124.62,10.92 L124.74,7.78 L124.01,7.78 L118.28,9.54 L118.28,10.15 L120.2,11.27 L120.2,22.6 C120.2,23.72 119.69,23.91 118.2,24 L118.2,25.06 L126.59,25.06 L126.59,24 C125.12,23.91 124.64,23.72 124.64,22.6 L124.64,11.82 C125.674389,11.0331559 126.92206,10.5766059 128.22,10.51 C129.98,10.51 130.68,11.44 130.68,13.29 L130.67,22.6 Z M110.31,8.96 C112.39,8.96 113.19,11.01 113.19,14.02 L106.79,14.02 C107.05,11.08 108.2,8.96 110.31,8.96 M110.63,7.78 C106.25,7.78 102.73,11.56 102.73,17.03 C102.73,21.96 105.83,25.38 110.47,25.38 C113.75143,25.5129625 116.648275,23.2546928 117.32,20.04 L116.81,19.75 C115.800932,21.4077586 113.979893,22.3965411 112.04,22.34 C108.9,22.34 106.6,19.68 106.73,15.2 L117.16,15.2 L117.16,14.47 C117.16,10.63 114.92,7.78 110.63,7.78 M97.83,5.82 C99.2189923,5.78705015 100.321525,4.64015804 100.299687,3.25094657 C100.27785,1.86173511 99.1398143,0.750063228 97.7504726,0.760786925 C96.3611309,0.771510622 95.2403908,1.90061697 95.2399999,3.29 C95.2398083,3.97152394 95.5145816,4.62430193 96.0021057,5.10053207 C96.4896299,5.5767622 97.1486677,5.83616265 97.83,5.82 M100.1,7.82 L99.4,7.82 L93.76,9.58 L93.76,10.19 L95.68,11.31 L95.68,22.64 C95.68,23.76 95.17,23.95 93.68,24.04 L93.68,25.1 L102.13,25.1 L102.13,24.04 C100.62,23.95 100.13,23.76 100.13,22.64 L100.1,7.82 Z M82.69,25.29 L84.22,25.29 L91.33,4.94 C91.61,4.08 92.33,3.88 93.18,3.76 L93.18,2.64 L86.85,2.64 L86.85,3.76 C88.77,3.82 89.41,4.27 89.41,5.2 C89.3532177,5.7162282 89.2218498,6.22148935 89.02,6.7 L85.02,18.7 L81.12,6.79 C80.9303341,6.26442882 80.8093335,5.71656485 80.76,5.16 C80.76,4.16 81.4,3.82 83.32,3.79 L83.32,2.67 L74.11,2.67 L74.11,3.79 C75,3.91 75.58,4.14 75.87,4.97 L77.63,10.25 L74.49,18.82 L70.11,6.56 C69.9093068,6.07129023 69.7812811,5.55581866 69.73,5.03 C69.73,4.19 70.33,3.81 72.03,3.75 L72.03,2.63 L62.65,2.63 L62.65,3.75 C63.52,3.87 64.25,4.13 64.54,4.93 L72,25.25 L73.54,25.25 L78.27,12.25 L82.69,25.29 Z M48.54,9 C50.62,9 51.42,11.05 51.42,14.06 L45,14.06 C45.26,11.12 46.41,9 48.52,9 M48.84,7.82 C44.46,7.82 40.94,11.6 40.94,17.07 C40.94,22 44.04,25.42 48.68,25.42 C51.9614305,25.5529625 54.8582745,23.2946928 55.53,20.08 L55.02,19.79 C54.0109324,21.4477586 52.1898928,22.4365411 50.25,22.38 C47.11,22.38 44.81,19.72 44.94,15.24 L55.37,15.24 L55.37,14.51 C55.37,10.67 53.13,7.82 48.84,7.82 M23.5,22.6 C23.5,23.72 22.98,23.91 21.5,24 L21.5,25.06 L29.89,25.06 L29.89,24 C28.41,23.91 27.89,23.72 27.89,22.6 L27.89,11.82 C28.9194265,11.0379974 30.1592271,10.5817787 31.45,10.51 C33.21,10.51 33.94,11.44 33.94,13.29 L33.94,22.64 C33.94,23.76 33.46,23.95 31.94,24.04 L31.94,25.1 L40.32,25.1 L40.32,24.04 C38.85,23.95 38.32,23.76 38.32,22.64 L38.32,13.07 C38.32,9.58 36.72,7.82 33.71,7.82 C31.3698988,7.91126583 29.2001138,9.06799332 27.82,10.96 L27.82,0 L27.12,0 L21.46,1.54 L21.46,2.21 L23.38,3.21 L23.5,22.6 Z M0.5,2.6 L0.02,9.99 L1.02,9.99 C3.1,5.22 3.87,3.75 6.34,3.75 L8,3.75 L8,21.82 C8,23.58 7.27,23.67 5.12,23.93 L5.12,25.05 L15.55,25.05 L15.55,23.93 C13.38,23.67 12.67,23.58 12.67,21.82 L12.67,3.75 L14.37,3.75 C16.83,3.75 17.6,5.22 19.65,9.99 L20.65,9.99 L20.17,2.6 L0.5,2.6 Z"></path>
        </g>
    </g>
</svg>